<?xml version="1.0" encoding="utf-8"?>
<!-- Generator: Adobe Illustrator 18.0.0, SVG Export Plug-In . SVG Version: 6.00 Build 0)  -->
<!DOCTYPE svg PUBLIC "-//W3C//DTD SVG 1.1//EN" "http://www.w3.org/Graphics/SVG/1.1/DTD/svg11.dtd">
<svg version="1.1" id="Слой_1" xmlns="http://www.w3.org/2000/svg" xmlns:xlink="http://www.w3.org/1999/xlink" x="0px" y="0px"
	 width="118px" height="26px" viewBox="0 0 118 26" enable-background="new 0 0 118 26" xml:space="preserve">
<line fill="none" x1="142.9" y1="46" x2="34.9" y2="46"/>
<g>
	<rect x="0" y="0" fill="none" width="117" height="26"/>
	<path fill-rule="evenodd" clip-rule="evenodd" fill="#E42122" d="M22.1,1c0,2.3,0.5,4.6,0.2,6.9C22.1,8,22,8,21.9,8.1
		c-0.3-0.5-0.7-1-0.9-1.5c-0.7-1.6-1.7-2.9-3.1-3.9C14.2,0,9.6,0.5,6.8,4C4.2,7.3,3.4,11.2,4,15.3c0.3,1.8,0.8,3.7,1.6,5.4
		c1.8,3.7,5.5,5.2,9.3,4.2c1.9-0.5,3-1.8,3.2-3.9c0.1-1.4,0.1-2.8,0-4.3c0-1.1-0.7-1.7-1.9-1.9c-0.5-0.1-1-0.2-1.7-0.3
		c0.9-0.7,9.4-0.8,10.8-0.1c-0.6,0.2-0.9,0.3-1.3,0.4c-1.7,0.2-2.2,0.6-2.2,2.4c0,1.7,0,3.5,0,5.2c0,0.4-0.2,1-0.5,1.1
		c-4.1,2.2-8.4,3.3-13,1.9c-5-1.5-7.6-5.1-8.2-10.2c-0.6-5.3,0.9-10,5.4-13c4.4-2.9,9-2.7,13.5-0.3c0.7,0.3,1.1,0.4,1.7-0.1
		c0.3-0.3,0.6-0.5,0.9-0.8C21.9,0.9,22,1,22.1,1L22.1,1L22.1,1z"/>
	<rect x="0" y="0" fill="none" width="117" height="26"/>
	<path fill-rule="evenodd" clip-rule="evenodd" fill="#E42122" d="M54.9,0.6c0.4-0.1,0.8-0.2,1.2-0.2c5.3,0,10.7,0,16,0
		c1.9,0,2,0,2.4,1.9c0.3,1.1,0.4,2.2,0.6,3.4c0,0.2-0.1,0.3-0.3,0.7c-0.3-0.4-0.6-0.7-0.8-1c-0.3-0.5-0.5-1-0.8-1.5
		c-1.1-2.1-2.9-3-5.2-2.9c-1.4,0.1-2.9,0.1-4.3,0.2c-1.2,0-1.7,0.4-1.8,1.6c-0.1,2.9-0.1,5.8,0,8.7c0,0.2,0.5,0.7,0.7,0.7
		c1.7,0,3.3,0,5-0.2c0.9-0.1,1.4-1,1.6-1.9c0.2-0.8,0.4-1.6,0.8-2.3c0.6,3.4,0.4,6.7,0.3,10.1c-0.2,0-0.3,0-0.5,0.1
		c-0.1-0.5-0.3-1-0.4-1.5c-0.6-2.4-1.4-3.1-3.9-3.1c-0.9,0-1.9,0-2.8,0.1c-0.6,0-0.9,0.3-0.9,1.1c0,2.6,0,5.2,0,7.8
		c0,1.5,0.5,2.2,2,2.2c2.5,0.1,4.9,0,7.4-0.2c1.7-0.1,2.9-1.2,3.7-2.8c0.6-1.1,1.1-2.2,1.7-3.4c0.2,0.2,0.3,0.3,0.3,0.4
		c-0.3,2.1-0.6,4.1-1,6.2c-0.1,0.3-0.6,0.6-0.9,0.7c-0.9,0.1-1.9,0.1-2.8,0.1c-5.3,0-10.6,0-15.9,0c-0.5,0-0.9-0.1-1.4-0.2
		c0-0.1,0-0.3,0-0.4c0.5-0.1,1-0.2,1.4-0.2c1.4-0.1,2-0.6,2-2c0-6.5,0-13,0-19.4c0-1.4-0.6-1.9-2-2c-0.5,0-0.9-0.1-1.4-0.2
		C54.8,0.9,54.9,0.7,54.9,0.6L54.9,0.6L54.9,0.6z"/>
	<rect x="0" y="0" fill="none" width="117" height="26"/>
	<path fill-rule="evenodd" clip-rule="evenodd" fill="#E42122" d="M44.7,0.6h7.7c0,0.1,0.1,0.2,0.1,0.3c-0.3,0.1-0.7,0.3-1,0.3
		c-2.1,0.2-2.4,0.5-2.4,2.6c0,4.2,0,8.4,0,12.6c0,0.9,0,1.9-0.2,2.8c-0.4,3.5-2.4,5.9-5.9,6.4c-2.2,0.3-4.5,0.3-6.7-0.1
		c-4-0.7-6-3.4-6-7.8c0-4.7,0-9.3,0-14c0-2.1-0.3-2.4-2.4-2.6c-0.3,0-0.6-0.1-1.1-0.2c0.8-0.8,9.4-0.8,10.8,0
		c-0.7,0.1-1.2,0.2-1.6,0.3c-1.6,0.1-2.1,0.6-2.1,2.2c0,5.2,0,10.4,0,15.7c0,2.6,1.4,4.6,3.9,5.5c1.7,0.6,3.4,0.7,5.1,0.3
		c3.3-0.7,5.2-3.1,5.3-7c0.1-4.8,0-9.6,0-14.5c0-1.6-0.6-2.1-2.1-2.2c-0.4,0-0.9-0.1-1.3-0.2C44.7,0.9,44.7,0.7,44.7,0.6L44.7,0.6
		L44.7,0.6z"/>
	<rect x="0" y="0" fill="none" width="117" height="26"/>
	<path fill-rule="evenodd" clip-rule="evenodd" fill="#E42122" d="M81.3,25.1c-0.1-2.2-0.2-4.4-0.3-6.6c1-0.2,1,0.5,1.2,1
		c0.5,1.9,1.4,3.4,3,4.5c2.1,1.4,4.3,1.6,6.6,0.6c1.7-0.8,2.6-2.2,2.7-4.1c0.1-1.8-0.8-3-2.2-3.8c-1.6-0.9-3.4-1.6-5.1-2.4
		c-0.6-0.3-1.1-0.5-1.7-0.9c-3.1-1.9-4.4-4.6-3.6-7.8c0.8-3,3.3-4.9,6.8-5.1c1.5-0.1,3,0.3,4.2,1.2c0.9,0.7,1.5,0.7,2.1-0.3
		c0.1-0.2,0.3-0.3,0.8-0.6c0,2.6,0.5,4.9,0.2,7.2C95.8,8,95.6,8,95.5,8c-0.2-0.4-0.4-0.8-0.6-1.1c-0.7-1.3-1.2-2.7-2-3.8
		c-1.3-1.8-3.2-2.2-5.2-1.7c-2,0.5-3.1,1.9-3.5,3.9c-0.3,1.6,0.2,2.9,1.5,3.7c1.3,0.9,2.8,1.5,4.3,2.2c1.6,0.8,3.3,1.5,4.7,2.5
		c3.8,2.9,3.3,8.8-0.9,11.1c-2.5,1.3-5.2,1.4-7.8,0.6c-0.4-0.1-0.7-0.2-1.1-0.4c-1.1-0.5-2.1-1.1-3.2,0.3
		C81.5,25.2,81.4,25.2,81.3,25.1L81.3,25.1L81.3,25.1z"/>
</g>
<path fill-rule="evenodd" clip-rule="evenodd" fill="#E42122" d="M101.4,25.1c-0.1-2.2-0.2-4.4-0.3-6.6c1-0.2,1,0.5,1.2,1
	c0.5,1.9,1.4,3.4,3,4.5c2.1,1.4,4.3,1.6,6.6,0.6c1.7-0.8,2.6-2.2,2.7-4.1c0.1-1.8-0.8-3-2.2-3.8c-1.6-0.9-3.4-1.6-5.1-2.4
	c-0.6-0.3-1.1-0.5-1.7-0.9c-3.1-1.9-4.4-4.6-3.6-7.8c0.8-3,3.3-4.9,6.8-5.1c1.5-0.1,3,0.3,4.2,1.2c0.9,0.7,1.5,0.7,2.1-0.3
	c0.1-0.2,0.3-0.3,0.8-0.6c0,2.6,0.5,4.9,0.2,7.2c-0.1,0-0.3,0.1-0.4,0.1c-0.2-0.4-0.4-0.8-0.6-1.1c-0.7-1.3-1.2-2.7-2-3.8
	c-1.3-1.8-3.2-2.2-5.2-1.7c-2,0.5-3.1,1.9-3.5,3.9c-0.3,1.6,0.2,2.9,1.5,3.7c1.3,0.9,2.8,1.5,4.3,2.2c1.6,0.8,3.3,1.5,4.7,2.5
	c3.8,2.9,3.3,8.8-0.9,11.1c-2.5,1.3-5.2,1.4-7.8,0.6c-0.4-0.1-0.7-0.2-1.1-0.4c-1.1-0.5-2.1-1.1-3.2,0.3
	C101.6,25.2,101.5,25.2,101.4,25.1L101.4,25.1L101.4,25.1z"/>
</svg>
